<?xml version="1.0" encoding="UTF-8" standalone="no"?>
<svg xmlns:dc="http://purl.org/dc/elements/1.1/" xmlns:cc="http://creativecommons.org/ns#" xmlns:rdf="http://www.w3.org/1999/02/22-rdf-syntax-ns#" xmlns:svg="http://www.w3.org/2000/svg" xmlns="http://www.w3.org/2000/svg" xmlns:sodipodi="http://sodipodi.sourceforge.net/DTD/sodipodi-0.dtd" xmlns:inkscape="http://www.inkscape.org/namespaces/inkscape" width="338.66666mm" height="73.948204mm" viewBox="0 0 338.66665 73.948203" version="1.1" id="svg8" inkscape:version="1.0.1 (3bc2e813f5, 2020-09-07)" sodipodi:docname="Google_IO_(2022).svg">
  <defs id="defs2"/>
  <sodipodi:namedview id="base" pagecolor="#ffffff" bordercolor="#666666" borderopacity="1.0" inkscape:pageopacity="0.0" inkscape:pageshadow="2" inkscape:zoom="0.53984374" inkscape:cx="640.00001" inkscape:cy="139.74464" inkscape:document-units="mm" inkscape:current-layer="layer1" inkscape:document-rotation="0" showgrid="false" showguides="true" inkscape:guide-bbox="true" inkscape:window-width="1366" inkscape:window-height="706" inkscape:window-x="-8" inkscape:window-y="-8" inkscape:window-maximized="1"/>
  <metadata id="metadata5">
    <rdf:RDF>
      <cc:Work rdf:about="">
        <dc:format>image/svg+xml</dc:format>
        <dc:type rdf:resource="http://purl.org/dc/dcmitype/StillImage"/>
        <dc:title/>
      </cc:Work>
    </rdf:RDF>
  </metadata>
  <g inkscape:label="Layer 1" inkscape:groupmode="layer" id="layer1" transform="translate(-44.332531,-140.87929)">
    <g id="g963" transform="matrix(2.7880039,0,0,2.7880039,-79.266733,-251.89272)">
      <g id="g938" style="fill:#202124;fill-opacity:1">
        <path d="m 54.260295,161.75438 c -5.396398,0 -9.927766,-4.37503 -9.927766,-9.75646 0,-5.38138 4.531368,-9.75633 9.927766,-9.75633 2.986555,0 5.108077,1.17075 6.694016,2.6907 l -1.894931,1.88966 c -1.153496,-1.06806 -2.69816,-1.9102 -4.819686,-1.9102 -3.934056,0 -7.023606,3.16307 -7.023606,7.08617 0,3.92309 3.069025,7.08623 7.023606,7.08623 2.554042,0 4.016458,-1.02694 4.943286,-1.95125 0.762106,-0.75996 1.256418,-1.84862 1.462339,-3.34793 h -6.467421 v -2.67023 h 9.062661 c 0.102996,0.47238 0.144195,1.04754 0.144195,1.66374 0,1.99238 -0.556112,4.47765 -2.306847,6.24409 -1.730133,1.78696 -3.913455,2.73181 -6.817612,2.73181 z" fill="#5f6368" id="path1093" style="fill:#202124;fill-opacity:1;stroke-width:0.740988"/>
        <path d="m 76.930767,155.47042 c 0,3.61498 -2.842656,6.28514 -6.323523,6.28514 -3.480867,0 -6.3233,-2.67016 -6.3233,-6.28514 0,-3.63551 2.842433,-6.28513 6.3233,-6.28513 3.480867,0 6.323523,2.64962 6.323523,6.28513 z m -2.760258,0 c 0,-2.25935 -1.647809,-3.79986 -3.54274,-3.79986 -1.89493,0 -3.542666,1.54051 -3.542666,3.79986 0,2.23882 1.647736,3.79979 3.542666,3.79979 1.894931,0 3.54274,-1.56097 3.54274,-3.79979 z" fill="#5f6368" id="path1095" style="fill:#202124;fill-opacity:1;stroke-width:0.740988"/>
        <path d="m 90.692403,155.46931 c 0,3.61498 -2.842429,6.28529 -6.323595,6.28529 -3.480425,0 -6.322855,-2.67031 -6.322855,-6.28529 0,-3.63551 2.84243,-6.28514 6.322855,-6.28514 3.481166,0 6.323595,2.64963 6.323595,6.28514 z m -2.780928,0 c 0,-2.25935 -1.64796,-3.79979 -3.542667,-3.79979 -1.894709,0 -3.542665,1.54044 -3.542665,3.79979 0,2.2389 1.647956,3.79993 3.542665,3.79993 1.894707,0 3.542667,-1.56103 3.542667,-3.79993 z" fill="#5f6368" id="path1097" style="fill:#202124;fill-opacity:1;stroke-width:0.740988"/>
        <path d="m 103.88318,160.85074 c 0,4.642 -2.73943,6.55226 -5.993107,6.55226 -3.048427,0 -4.881632,-2.05401 -5.581868,-3.71769 l 2.409695,-1.00648 c 0.432738,1.02701 1.482718,2.23883 3.172173,2.23883 2.079956,0 3.356677,-1.294 3.356677,-3.69716 v -0.90371 h -0.103 c -0.61724,0.75995 -1.812453,1.43781 -3.315921,1.43781 -3.151422,0 -6.03461,-2.73181 -6.03461,-6.26462 0,-3.55349 2.883188,-6.30581 6.03461,-6.30581 1.503468,0 2.698681,0.65726 3.315921,1.39677 h 0.103 v -1.02702 h 2.63643 z m -2.43044,-5.36076 c 0,-2.21837 -1.482711,-3.84099 -3.356673,-3.84099 -1.916196,0 -3.501911,1.62262 -3.501911,3.84099 0,2.1977 1.606462,3.77926 3.501911,3.77926 1.873962,0 3.356673,-1.58156 3.356673,-3.77926 z" fill="#5f6368" id="path1099" style="fill:#202124;fill-opacity:1;stroke-width:0.740988"/>
        <path d="m 108.53667,142.90065 v 18.46523 h -2.75943 v -18.46523 z" fill="#5f6368" id="path1101" style="fill:#202124;fill-opacity:1;stroke-width:0.740988"/>
        <path d="m 119.21374,157.54511 2.14219,1.43782 c -0.70023,1.02701 -2.36894,2.79346 -5.25212,2.79346 -3.58417,0 -6.24061,-2.75241 -6.24061,-6.28529 0,-3.73815 2.69794,-6.28515 5.93161,-6.28515 3.27518,0 4.86089,2.58805 5.39663,4.00527 l 0.28824,0.71891 -8.4243,3.47123 c 0.63873,1.25294 1.64722,1.9102 3.04843,1.9102 1.40047,-0.0411 2.38894,-0.71891 3.10993,-1.76645 z m -6.61111,-2.25935 5.62263,-2.34152 c -0.30974,-0.78048 -1.23597,-1.33511 -2.3482,-1.33511 -1.40046,0 -3.35742,1.25301 -3.27443,3.67663 z" fill="#5f6368" id="path1103" style="fill:#202124;fill-opacity:1;stroke-width:0.740988"/>
      </g>
      <path id="rect947" style="fill:#202124;fill-opacity:1;stroke-width:17.5373;paint-order:stroke fill markers" d="m 145.31283,140.87929 h 1.82179 l -5.08926,22.4914 h -1.82179 z" sodipodi:nodetypes="ccccc"/>
      <path id="rect944" style="fill:#3d8bff;fill-opacity:1;stroke-width:17.4551;paint-order:stroke fill markers" d="m 129.69254,142.86812 h 9.22079 v 18.4416 h -9.22079 z"/>
      <path id="path950" style="fill:#3d8bff;fill-opacity:1;stroke-width:17.2513;paint-order:stroke fill markers" d="m 165.80534,152.11745 a 9.5492096,9.5492096 0 0 1 -9.54921,9.54921 9.5492096,9.5492096 0 0 1 -9.54921,-9.54921 9.5492096,9.5492096 0 0 1 9.54921,-9.54921 9.5492096,9.5492096 0 0 1 9.54921,9.54921 z"/>
    </g>
  </g>
</svg>